<svg width="20" height="25" viewBox="0 0 20 25" fill="none" xmlns="http://www.w3.org/2000/svg">
<path d="M13.6026 4.00668C12.7276 5.05454 11.3336 5.88488 9.94196 5.76325C9.75811 4.35051 10.4516 2.83719 11.2522 1.89925C12.1248 0.830339 13.6515 0.0631525 14.8895 0C15.0361 1.4759 14.4613 2.92607 13.6026 4.00668ZM14.8756 6.04159C12.8533 5.91763 11.1172 7.20875 10.1584 7.20875C9.17865 7.20875 7.7102 6.10241 6.11143 6.13983C4.03792 6.16556 2.09938 7.3561 1.04517 9.27173C-1.14935 13.0819 0.475017 18.7236 2.58344 21.8297C3.61437 23.3641 4.84778 25.0458 6.47447 24.999C8.01273 24.9359 8.63176 23.9769 10.4865 23.9769C12.3645 23.9769 12.8975 24.999 14.5358 24.9616C16.2183 24.9359 17.2842 23.4272 18.3151 21.8929C19.4904 20.1503 19.9744 18.4429 20 18.3587C19.9744 18.3213 16.7396 17.0676 16.7164 13.2901C16.6908 10.1208 19.26 8.61213 19.3693 8.52559C17.9265 6.33397 15.6482 6.10241 14.8732 6.04393L14.8756 6.04159Z" fill="black"/>
</svg>
