<svg width="26" height="23" viewBox="0 0 26 23" fill="none" xmlns="http://www.w3.org/2000/svg">
<path d="M23.6581 4.29104C21.0887 2.80785 17.8031 3.68919 16.3183 6.25859L12.5754 12.7423C11.4924 14.6146 12.8866 15.2689 14.4413 16.201L18.0429 18.2797C19.2625 18.9832 20.8203 18.5656 21.5238 17.3476L25.3715 10.6843C26.6641 8.44525 25.8971 5.5837 23.6581 4.29104Z" fill="#EA4335"/>
<path d="M19.4249 6.97471L15.8233 4.89605C13.8351 3.79239 12.7093 3.71934 11.893 5.01674L6.58118 14.216C5.09796 16.7838 5.9809 20.0678 8.54869 21.5478C10.7878 22.8404 13.6494 22.0734 14.942 19.8344L20.3555 10.4572C21.0621 9.23764 20.6445 7.67821 19.4249 6.97471Z" fill="#FBBC04"/>
<path d="M20.117 2.24566L17.5873 0.784703C14.7893 -0.830294 11.2116 0.127269 9.59657 2.92532L4.78016 11.2671C4.06873 12.4978 4.49114 14.0731 5.72186 14.7829L8.55486 16.4185C9.95385 17.2269 11.7419 16.7473 12.5502 15.3482L18.0526 5.81868C19.1928 3.84477 21.7162 3.16829 23.69 4.30847L20.117 2.24566Z" fill="#34A853"/>
<path d="M10.2809 5.31204L7.5464 3.73675C6.32679 3.03485 4.76899 3.45091 4.06551 4.66732L0.784704 10.3365C-0.830295 13.1266 0.12727 16.6964 2.92532 18.3067L5.00719 19.5056L7.5321 20.9602L8.62783 21.5906C6.68252 20.2885 6.06479 17.6794 7.25419 15.6245L8.10376 14.1572L11.2147 8.78181C11.9166 7.56861 11.4989 6.01393 10.2809 5.31204Z" fill="#4285F4"/>
</svg>
