<svg width="33" height="21" viewBox="0 0 33 21" fill="none" xmlns="http://www.w3.org/2000/svg">
<path d="M11.4316 2.14453H21.1129V17.885H11.4316V2.14453Z" fill="#FF5F00"/>
<path d="M12.4283 10.0123C12.4271 8.49659 12.7723 7.0005 13.4376 5.63723C14.103 4.27395 15.0712 3.0792 16.269 2.1434C14.7855 0.982873 13.004 0.261209 11.1281 0.0608887C9.25209 -0.139432 7.35735 0.189672 5.66039 1.01059C3.96344 1.8315 2.53272 3.11111 1.53177 4.70316C0.530811 6.29521 0 8.13548 0 10.0136C0 11.8918 0.530811 13.732 1.53177 15.3241C2.53272 16.9161 3.96344 18.1957 5.66039 19.0167C7.35735 19.8376 9.25209 20.1667 11.1281 19.9664C13.004 19.766 14.7855 19.0444 16.269 17.8839C15.0709 16.9478 14.1024 15.7526 13.437 14.3888C12.7716 13.025 12.4267 11.5283 12.4283 10.0122V10.0123Z" fill="#EB001B"/>
<path d="M31.5775 16.2154V15.8929H31.7171V15.8262H31.3848V15.8929H31.516V16.2155L31.5775 16.2154ZM32.2227 16.2154V15.8262H32.1221L32.0048 16.1042L31.8875 15.8262H31.787V16.2154H31.8596V15.9207L31.9685 16.1738H32.0439L32.1529 15.9207V16.2154H32.2227Z" fill="#F79E1B"/>
<path d="M32.54 10.0124C32.54 11.8907 32.009 13.7311 31.0079 15.3232C30.0068 16.9153 28.5758 18.1949 26.8786 19.0157C25.1815 19.8365 23.2865 20.1654 21.4105 19.9648C19.5344 19.7642 17.7529 19.0421 16.2695 17.8813C17.4668 16.9446 18.4347 15.7495 19.1003 14.3862C19.7658 13.0228 20.1117 11.5268 20.1117 10.011C20.1117 8.49521 19.7658 6.9992 19.1003 5.63585C18.4347 4.2725 17.4668 3.07743 16.2695 2.1408C17.7529 0.979898 19.5344 0.257875 21.4105 0.0572625C23.2866 -0.14335 25.1815 0.185542 26.8787 1.00635C28.5758 1.82715 30.0068 3.10674 31.0079 4.69885C32.009 6.29097 32.54 8.13136 32.54 10.0097V10.0124Z" fill="#F79E1B"/>
</svg>
