<svg width="32" height="11" viewBox="0 0 32 11" fill="none" xmlns="http://www.w3.org/2000/svg">
<path d="M10.1789 0.198766L7.79223 5.06146C7.27369 6.12629 6.76937 7.15562 6.37159 8.22044H6.34317C6.27924 7.15562 6.20111 6.14048 6.08746 5.06146L5.61154 0.198766H0V0.553708H0.191787C2.79156 0.695684 3.45216 2.20773 3.62264 2.98151L3.3101 0.553708L3.63685 3.0525C3.62974 3.0312 3.62974 3.0028 3.62264 2.98151L3.67947 3.43583V3.37904L4.58868 10.4211H7.22397L12.7148 0.198766H10.1789ZM16.2664 0.163272L14.2491 10.3927H11.976L13.9933 0.163272H16.2664ZM16.4226 8.02877C17.0548 8.39081 17.9569 8.68186 18.9301 8.68186C19.8109 8.68186 20.6206 8.28433 20.6206 7.48216C20.6206 6.90716 20.166 6.52382 19.1858 6.0411C18.0493 5.4519 16.9767 4.66393 16.9767 3.32225C16.9767 1.25649 18.8519 0 21.1747 0C22.4675 0 23.2275 0.269754 23.6821 0.518213L22.6664 2.33551C22.3183 2.15094 22.0484 1.7889 20.9829 1.8031C19.9245 1.8173 19.3705 2.3923 19.3705 2.95311C19.3705 3.54231 20.0169 3.91145 20.919 4.39417C22.2118 5.04726 23.0357 5.87782 23.0357 7.09172C23.0357 9.37045 21.0752 10.5347 18.7099 10.5347C17.2253 10.5347 16.0178 9.94545 15.5134 9.57631L16.4226 8.02877ZM26.3316 7.73772L25.0673 10.3927H22.6522L27.8304 0.163272H30.7498L32 10.3927H29.6133L29.3931 7.73772H26.3316ZM29.3008 6.0695L29.0948 3.86886C29.0451 3.30805 28.9811 2.49169 28.9385 1.86699H28.9101C28.6402 2.49169 28.3418 3.27966 28.0577 3.86886L26.9993 6.0695H29.3008Z" fill="#161E6F"/>
</svg>
